<?xml version="1.0" standalone="no"?><!-- Generator: Gravit.io --><svg xmlns="http://www.w3.org/2000/svg" xmlns:xlink="http://www.w3.org/1999/xlink" style="isolation:isolate" viewBox="-0.5 -0.5 483 801" width="483" height="801"><path d="M 40.751 0 L 441.249 0 C 463.74 0 482 18.26 482 40.751 L 482 759.249 C 482 781.74 463.74 800 441.249 800 L 40.751 800 C 18.26 800 0 781.74 0 759.249 L 0 40.751 C 0 18.26 18.26 0 40.751 0 Z" style="stroke:none;fill:#343F4B;stroke-miterlimit:10;"/><path d="M 40.751 0 L 441.249 0 C 463.74 0 482 18.26 482 40.751 L 482 759.249 C 482 781.74 463.74 800 441.249 800 L 40.751 800 C 18.26 800 0 781.74 0 759.249 L 0 40.751 C 0 18.26 18.26 0 40.751 0 Z" style="fill:none;stroke:#000000;stroke-width:1;stroke-linecap:square;stroke-linejoin:bevel;stroke-miterlimit:2;"/><path d="M 74.624 41 L 407.376 41 C 431.453 41 451 60.547 451 84.624 L 451 647.376 C 451 671.453 431.453 691 407.376 691 L 74.624 691 C 50.547 691 31 671.453 31 647.376 L 31 84.624 C 31 60.547 50.547 41 74.624 41 Z" style="stroke:none;fill:#FFFFFF;stroke-linecap:square;stroke-linejoin:bevel;stroke-miterlimit:2;"/><path d="M 74.624 41 L 407.376 41 C 431.453 41 451 60.547 451 84.624 L 451 647.376 C 451 671.453 431.453 691 407.376 691 L 74.624 691 C 50.547 691 31 671.453 31 647.376 L 31 84.624 C 31 60.547 50.547 41 74.624 41 Z" style="fill:none;stroke:#000000;stroke-width:1;stroke-linecap:round;stroke-linejoin:round;stroke-miterlimit:2;"/><rect x="379" y="35.5" width="2" height="1" transform="matrix(1,0,0,1,0,0)" fill="rgb(235,235,235)"/><circle vector-effect="non-scaling-stroke" cx="241" cy="744.5" r="34.5" fill="rgb(31,36,41)"/><path d="M 223.873 206 L 258.127 206 C 272.131 206 283.5 217.202 283.5 231 L 283.5 231 C 283.5 244.798 272.131 256 258.127 256 L 223.873 256 C 209.869 256 198.5 244.798 198.5 231 L 198.5 231 C 198.5 217.202 209.869 206 223.873 206 Z" style="stroke:none;fill:#1F2429;stroke-linecap:round;stroke-linejoin:round;stroke-miterlimit:2;"/><path d="M 161 231 L 321 231 C 359.634 231 391 261.283 391 298.582 L 391 298.582 C 391 344.07 352.749 381 305.634 381 L 176.366 381 C 129.251 381 91 344.07 91 298.582 L 91 298.582 C 91 261.283 122.366 231 161 231 Z" style="stroke:none;fill:#FFEB3D;stroke-linecap:round;stroke-linejoin:round;stroke-miterlimit:2;"/><g style="mix-blend-mode:normal;" opacity="0.6"><path d="M 165.375 248.5 L 316.625 248.5 C 349.395 248.5 376 274.265 376 306 L 376 306 C 376 337.735 349.395 363.5 316.625 363.5 L 165.375 363.5 C 132.605 363.5 106 337.735 106 306 L 106 306 C 106 274.265 132.605 248.5 165.375 248.5 Z" style="stroke:none;fill:#00A4FC;stroke-miterlimit:10;"/></g><rect x="91" y="306" width="300" height="75" transform="matrix(1,0,0,1,0,0)" fill="rgb(255,235,61)"/><rect x="91" y="366" width="300" height="30" transform="matrix(1,0,0,1,0,0)" fill="rgb(150,159,170)"/><rect x="31" y="421" width="420" height="90" transform="matrix(1,0,0,1,0,0)" fill="rgb(150,159,170)"/><path d="M 91 331 L 175.942 331 C 184.253 331 191 337.747 191 346.058 L 191 366 L 91 366 L 91 331 Z" style="stroke:none;fill:#FF9052;stroke-linecap:round;stroke-linejoin:round;stroke-miterlimit:2;"/><path d="M 91 344 L 164.09 344 C 170.663 344 176 349.337 176 355.91 L 176 366 C 176 366 176 366 176 366 L 91 366 C 91 366 91 366 91 366 L 91 344 C 91 344 91 344 91 344 Z" style="stroke:none;fill:#FF5852;stroke-linecap:round;stroke-linejoin:round;stroke-miterlimit:2;"/><path d="M 60 291 L 91 291 L 91 306 L 91 306 L 60 306 L 60 306 L 60 291 L 60 291 Z" style="stroke:none;fill:#FFEB3D;stroke-linecap:round;stroke-linejoin:round;stroke-miterlimit:2;"/><path d="M 391 291 L 422 291 L 422 306 L 391 306 L 391 291 Z" style="stroke:none;fill:#FFEB3D;stroke-linecap:round;stroke-linejoin:round;stroke-miterlimit:2;"/><path d="M 391 331 L 306.058 331 C 297.747 331 291 337.747 291 346.058 L 291 366 L 391 366 L 391 331 Z" style="stroke:none;fill:#FF9052;stroke-linecap:round;stroke-linejoin:round;stroke-miterlimit:2;"/><path d="M 391 344 L 317.91 344 C 311.337 344 306 349.337 306 355.91 L 306 366 C 306 366 306 366 306 366 L 391 366 C 391 366 391 366 391 366 L 391 344 C 391 344 391 344 391 344 Z" style="stroke:none;fill:#FF5852;stroke-linecap:round;stroke-linejoin:round;stroke-miterlimit:2;"/><path d="M 98.5 396 L 183.5 396 L 183.5 436 C 183.5 441.519 179.019 446 173.5 446 L 108.5 446 C 102.981 446 98.5 441.519 98.5 436 L 98.5 396 Z" style="stroke:none;fill:#1F2429;stroke-linecap:round;stroke-linejoin:round;stroke-miterlimit:2;"/><path d="M 298.5 396 L 383.5 396 L 383.5 436 C 383.5 441.519 379.019 446 373.5 446 L 308.5 446 C 302.981 446 298.5 441.519 298.5 436 L 298.5 396 Z" style="stroke:none;fill:#1F2429;stroke-linecap:round;stroke-linejoin:round;stroke-miterlimit:2;"/><rect x="198.5" y="368" width="85" height="26" transform="matrix(1,0,0,1,0,0)" fill="rgb(225,220,220)"/><rect x="226" y="431" width="30" height="58" transform="matrix(1,0,0,1,0,0)" fill="rgb(255,235,61)"/></svg>